<?xml version="1.0" encoding="UTF-8" standalone="no"?>
<!-- Created with Inkscape (http://www.inkscape.org/) -->

<svg
   xmlns:dc="http://purl.org/dc/elements/1.1/"
   xmlns:cc="http://creativecommons.org/ns#"
   xmlns:rdf="http://www.w3.org/1999/02/22-rdf-syntax-ns#"
   xmlns:svg="http://www.w3.org/2000/svg"
   xmlns="http://www.w3.org/2000/svg"
   xmlns:sodipodi="http://sodipodi.sourceforge.net/DTD/sodipodi-0.dtd"
   xmlns:inkscape="http://www.inkscape.org/namespaces/inkscape"
   width="180"
   height="270"
   id="svg2"
   version="1.1"
   inkscape:version="0.48.4 r9939"
   sodipodi:docname="odb-gw.svg">
  <defs
     id="defs4" />
  <sodipodi:namedview
     id="base"
     pagecolor="#ffffff"
     bordercolor="#666666"
     borderopacity="1.0"
     inkscape:pageopacity="0.0"
     inkscape:pageshadow="2"
     inkscape:zoom="2.8"
     inkscape:cx="118.43504"
     inkscape:cy="134.25919"
     inkscape:document-units="in"
     inkscape:current-layer="layer1"
     showgrid="false"
     units="in"
     inkscape:window-width="1855"
     inkscape:window-height="1056"
     inkscape:window-x="65"
     inkscape:window-y="24"
     inkscape:window-maximized="1" />
  <metadata
     id="metadata7">
    <rdf:RDF>
      <cc:Work
         rdf:about="">
        <dc:format>image/svg+xml</dc:format>
        <dc:type
           rdf:resource="http://purl.org/dc/dcmitype/StillImage" />
        <dc:title />
      </cc:Work>
    </rdf:RDF>
  </metadata>
  <g
     inkscape:label="Layer 1"
     inkscape:groupmode="layer"
     id="layer1"
     transform="translate(0,-782.35975)">
    <path
       style="fill:#000000"
       d="M 0.125 0.28125 L 0.125 90.8125 L 0.125 270.96875 L 90.65625 270.96875 L 181.1875 270.96875 L 181.1875 90.8125 L 181.1875 0.28125 L 90.65625 0.28125 L 0.125 0.28125 z M 102.625 8.71875 L 111.4375 8.71875 C 119.12811 8.71875 120.24855 8.77656 120.40625 9.1875 C 120.68363 9.91033 119.73765 13.39788 118.6875 15.46875 C 117.29601 18.21273 116.24112 19.52885 113.8125 21.5 C 110.61247 24.09723 109.68033 25.02943 109 26.375 C 108.66432 27.03893 108.02149 27.9498 107.59375 28.40625 C 106.63207 29.43247 105.30192 29.50364 104.1875 28.5625 C 102.48204 27.12219 102.18796 25.15058 102.875 19.59375 C 103.35155 15.73915 103.35633 12.82223 102.84375 9.84375 L 102.625 8.71875 z M 90.65625 8.78125 L 97.75 8.875 L 97.84375 10.0625 C 97.896805 10.71073 97.728685 12.12417 97.46875 13.21875 C 97.208807 14.31334 96.86116 16.6747 96.71875 18.46875 C 96.464326 21.67391 96.456027 21.73667 95.375 22.84375 C 94.479695 23.76062 94.28125 24.20324 94.28125 25.1875 C 94.28125 25.85273 94.105428 26.58207 93.90625 26.78125 C 93.209043 27.47844 92.39512 27.09719 91.5625 25.75 C 90.693213 24.34345 89.945847 24.2026 88.8125 25.15625 C 87.666522 26.11995 87.483528 26.11634 86.59375 25.15625 C 86.200248 24.73166 85.387871 24.25262 84.8125 24.09375 C 84.068575 23.88835 83.677233 23.52921 83.40625 22.875 C 83.071428 22.06666 83.094563 21.86857 83.625 21.15625 C 84.199763 20.3844 84.38307 20.33117 87.46875 20.1875 C 90.468165 20.04786 90.750496 19.97654 91.3125 19.28125 C 91.796028 18.68305 91.895467 18.21994 91.78125 17.03125 C 91.592265 15.06442 90.844988 14.46875 88.6875 14.46875 C 87.81204 14.46875 86.645076 14.26308 86.09375 14.03125 C 84.963358 13.55597 84.307952 13.72018 82.5625 14.90625 C 81.9493 15.32293 81.07857 15.65625 80.625 15.65625 C 79.13748 15.65625 78.927913 14.35272 79.71875 10.375 L 79.9375 9.1875 L 81.75 8.9375 C 82.743128 8.81166 86.755665 8.73865 90.65625 8.78125 z M 126.9375 8.90625 C 133.61978 8.8411247 155.42321 9.4387588 162.78125 9.9375 C 168.94408 10.35521 169.66374 10.46643 170.75 11.4375 L 171.6875 12.28125 L 171.625 17.53125 C 171.49597 32.30246 171.54019 68.45413 171.6875 73.03125 C 171.86713 78.61241 171.99822 87.37013 172.3125 116.3125 C 172.44754 128.74942 172.37817 137.09248 172.125 143 C 171.92228 147.73049 171.67093 155.34174 171.5625 159.90625 C 171.31027 170.52387 171.3851 170.40318 166.34375 170.78125 C 162.63907 171.05911 153.45522 171.1228 152.8125 170.875 C 150.60738 170.0248 141.55001 164.293 139.46875 162.4375 C 138.84483 161.88132 137.43989 160.98664 136.34375 160.46875 C 134.54382 159.61835 134.25708 159.39667 133.625 158 C 132.72373 156.00849 132.40903 152.2316 132.90625 149.78125 C 133.10657 148.79408 133.8528 146.44883 134.59375 144.5625 C 135.812 141.46104 135.99482 140.71265 136.375 136.71875 C 136.85251 131.70236 137.02452 130.958 138.65625 127.25 C 139.30355 125.77908 139.92965 124.07303 140.03125 123.4375 C 140.198 122.39471 140.12005 122.2223 139.28125 121.625 C 138.17916 120.84027 137.88034 119.83943 137.4375 115.6875 C 136.95884 111.19952 136.21956 109.11497 135.34375 109.65625 C 134.26639 110.32211 132.28125 114.74443 132.28125 116.5 C 132.28125 117.00112 132.02486 117.59784 131.65625 117.90625 C 129.88175 119.39094 127.05865 122.41688 126.8125 123.09375 C 126.65861 123.51692 125.98557 124.22031 125.3125 124.6875 C 124.27438 125.40804 124.11294 125.68759 124.25 126.375 C 124.36315 126.94248 124.17099 127.51502 123.625 128.3125 C 122.9645 129.27724 122.80694 129.94548 122.59375 132.6875 C 122.28093 136.71061 121.9417 137.99136 120.9375 138.78125 C 119.79604 139.67912 119.20144 139.54583 117.53125 138.0625 C 116.14713 136.83321 115.89976 136.73532 113.84375 136.53125 C 112.62525 136.41034 111.14343 136.07338 110.5625 135.78125 C 106.76804 133.87317 105.61888 135.87707 108.8125 138.84375 C 110.10227 140.0419 110.2867 140.36688 109.96875 140.75 C 109.67697 141.10155 109.02564 141.18 107.09375 141.125 C 104.85146 141.06117 104.48274 141.12447 103.59375 141.78125 C 103.04739 142.18489 101.93685 142.62164 101.125 142.75 C 100.23512 142.89066 99.204657 143.33524 98.5625 143.84375 C 97.976652 144.30769 97.20049 144.91884 96.8125 145.21875 C 95.600538 146.15564 94.254631 146.18692 92.40625 145.3125 C 90.365874 144.34727 88.095386 144.3021 84.15625 145.125 C 82.665438 145.43645 81.346273 145.61005 81.21875 145.53125 C 80.645428 145.17692 81.12094 144.44041 82.65625 143.28125 C 83.56915 142.592 84.3125 141.90298 84.3125 141.75 C 84.3125 141.597 85.16455 141.09799 86.21875 140.625 C 88.158578 139.75468 88.692717 139.21631 88.25 138.5 C 87.874115 137.8918 85.941692 138.33673 84.71875 139.3125 C 82.546578 141.04574 82.23121 141.1655 80.40625 141 C 79.017159 140.87408 78.431615 140.96094 77.375 141.5 C 76.34771 142.02404 75.779248 142.12311 74.75 141.96875 C 74.028501 141.86056 73.257015 141.60076 73.03125 141.375 C 72.805155 141.1489 72.537556 139.97469 72.4375 138.78125 C 72.22846 136.28784 71.803232 135.48542 70.09375 134.40625 C 69.124262 133.79423 68.644982 133.16442 67.84375 131.40625 C 67.286462 130.18335 66.565025 129.02909 66.21875 128.84375 C 65.872475 128.65843 64.56146 128.39005 63.3125 128.25 C 60.868543 127.97592 60.048712 127.5022 59.71875 126.1875 C 59.610052 125.75444 59.185432 125.01157 58.78125 124.53125 C 58.377075 124.0509 58.0625 123.38378 58.0625 123.0625 C 58.0625 122.68448 57.47743 122.12275 56.40625 121.4375 C 54.527381 120.23562 53.950212 119.34099 53.65625 117.125 C 53.49611 115.91777 53.568663 115.39186 53.96875 114.78125 C 54.421975 114.08953 54.436992 113.75596 54.125 111.90625 C 53.849267 110.2713 53.83844 109.68902 54.125 109.34375 C 54.65345 108.707 54.94902 108.77048 57.75 110.125 C 59.136968 110.79573 60.894228 111.42985 61.65625 111.53125 C 62.444771 111.63621 63.389496 112.03421 63.875 112.4375 C 64.989493 113.36324 66.406278 113.33269 68.5 112.375 C 69.407185 111.96004 70.465443 111.625 70.84375 111.625 C 71.772287 111.625 72.771001 110.86855 72.375 110.46875 C 72.209018 110.30116 70.76347 110.00756 69.15625 109.84375 C 66.273947 109.55005 65.349487 109.27956 64.3125 108.375 C 63.603273 107.75637 63.62857 105.80074 64.375 104.15625 C 65.37988 101.94235 66.615525 102.07849 67.3125 104.46875 C 68.018392 106.88964 69.845386 107.73073 71.8125 106.53125 C 72.520396 106.09961 72.937008 105.50259 73.375 104.1875 C 74.142839 101.88204 74.991617 101.47182 76.65625 102.65625 C 77.274986 103.09648 77.85673 103.3932 77.9375 103.3125 C 78.317022 102.93297 76.692259 101.40828 74.9375 100.5 C 73.013018 99.50389 72.944945 99.49946 70.0625 99.6875 C 66.552351 99.91646 65.650337 99.75379 65.40625 98.78125 C 65.20012 97.95998 64.491063 97.84495 63.625 98.5 C 62.751775 99.16049 60.885363 99.07287 60.15625 98.34375 C 59.40925 97.59675 59.60969 97.09785 61.34375 95.53125 C 62.838357 94.18094 64.15597 94.09152 67.5625 95.09375 C 69.619757 95.69901 70.010555 95.73669 71.9375 95.40625 C 75.022164 94.87729 76.268097 94.91987 76.90625 95.625 C 77.347399 96.11246 77.370653 96.3162 77.0625 96.6875 C 76.840913 96.95456 76.44035 97.06345 76.0625 96.96875 C 75.708035 96.87997 75.144874 96.99834 74.84375 97.21875 C 74.319274 97.60272 74.343491 97.6426 74.96875 98.4375 C 75.683711 99.34641 78.205064 100.75 79.125 100.75 C 79.443855 100.75 80.40547 101.23157 81.25 101.8125 C 82.942562 102.9768 83.196147 103.05437 83.65625 102.5 C 83.876863 102.23415 83.824448 101.90475 83.53125 101.375 C 83.30187 100.96052 83.131 100.17639 83.125 99.65625 C 83.116802 98.93088 82.796267 98.46885 81.8125 97.59375 C 80.413412 96.34925 79.1897 94.55089 79.1875 93.78125 C 79.184778 92.92264 78.009228 91.79483 76.9375 91.59375 C 76.367942 91.48692 75.142809 90.99308 74.21875 90.5 C 72.109506 89.37443 70.811642 89.34479 66.8125 90.375 L 63.78125 91.15625 L 62.34375 90.46875 C 61.408005 90.01576 60.46681 89.80575 59.59375 89.84375 C 57.257635 89.94541 57.048989 89.05044 58.875 86.65625 C 60.047212 85.11929 59.983432 82.77381 58.6875 79.5625 C 57.661267 77.01947 57.488633 74.8536 58.125 73.09375 C 58.42611 72.26105 58.372951 71.86719 57.9375 70.65625 C 57.35922 69.04811 57.451643 68.71027 58.78125 66.75 C 59.404831 65.83066 59.75309 64.76844 60.03125 63.03125 C 60.321336 61.21952 60.64666 60.29649 61.28125 59.46875 C 61.749392 58.85814 62.347004 57.864 62.625 57.25 C 63.191677 55.99837 64.27513 55.36209 67.46875 54.34375 C 68.58109 53.98906 70.952798 53.01238 72.75 52.1875 C 74.547206 51.36261 76.964375 50.49415 78.125 50.25 C 79.285625 50.00586 81.433567 49.44897 82.875 49.03125 C 84.316432 48.61354 86.955137 48.06283 88.75 47.8125 C 90.544862 47.56216 92.602849 47.15662 93.3125 46.90625 C 95.570345 46.10964 97.348276 46.03161 99.875 46.59375 C 101.33094 46.91763 102.81151 47.04494 103.71875 46.9375 C 104.92554 46.79457 105.49252 46.91355 107.03125 47.625 C 108.05838 48.09991 109.6666 48.64457 110.59375 48.8125 C 113.59203 49.35559 116.93581 51.55104 121.09375 55.75 C 123.10712 57.78324 124.89755 59.76009 125.09375 60.125 C 125.31082 60.52874 125.4268 61.78275 125.375 63.34375 C 125.3282 64.7546 125.28725 66.2413 125.28125 66.65625 C 125.27488 67.0712 125.60967 68.70442 126.03125 70.28125 C 126.45282 71.85808 127.07752 75.27103 127.4375 77.84375 C 128.18434 83.18104 128.46111 84.19528 129.28125 84.9375 C 129.60368 85.22928 130.27956 86.55966 130.78125 87.90625 C 132.01726 91.22388 132.91363 92.90625 133.40625 92.90625 C 133.95228 92.90625 133.91559 91.12718 133.34375 86.96875 C 133.09759 85.17875 132.62073 80.86063 132.28125 77.375 C 131.94177 73.88938 131.56026 70.2879 131.40625 69.375 C 130.41299 63.48756 130.20855 61.87003 130.03125 58.21875 C 129.80515 53.56292 129.99764 52.74993 131.84375 50.90625 C 133.56514 49.18714 134.93408 48.98743 139.6875 49.75 C 143.86693 50.42048 144.6627 50.36433 146.8125 49.28125 C 148.81257 48.27355 149.47416 47.24162 148.75 46.25 C 148.41775 45.79504 147.76357 45.65385 145.21875 45.5 C 143.50378 45.39632 141.30606 45.12895 140.34375 44.90625 C 138.73202 44.53324 138.39627 44.54601 135.9375 45.1875 C 133.84125 45.73438 132.85058 45.84372 131.34375 45.6875 C 129.94415 45.5424 129.05703 45.62358 128.09375 45.96875 C 125.48271 46.90439 125.28751 46.81558 121.4375 42.90625 C 119.51681 40.95595 117.02681 38.56651 115.90625 37.59375 C 112.97117 35.04579 111.95849 32.74749 112.65625 30.15625 C 112.91357 29.20065 113.68755 28.1537 115.65625 26.0625 C 118.81307 22.70922 120.36241 20.01987 121 16.6875 C 121.24324 15.41626 121.9508 13.21038 122.59375 11.78125 C 123.76274 9.18285 123.77603 9.16891 125.09375 8.96875 C 125.3456 8.930495 125.98289 8.9155536 126.9375 8.90625 z M 60.09375 9.03125 C 65.612327 9.0310875 71.108798 9.09717 71.5625 9.21875 C 72.396853 9.44235 72.395618 9.78001 71.625 11.375 C 70.895738 12.88439 70.830972 15.40513 71.46875 17.78125 C 72.24464 20.67193 72.077107 23.14241 70.875 26.21875 C 70.294065 27.70545 69.8125 29.07289 69.8125 29.25 C 69.8125 29.4271 69.501157 29.90509 69.09375 30.3125 C 68.21697 31.18927 66.760417 31.27417 64.6875 30.5625 C 62.615024 29.85097 61.360473 28.38834 59.40625 24.46875 C 58.439035 22.52882 57.194802 20.2674 56.65625 19.4375 C 54.761472 16.51763 51.534442 12.82045 49.59375 11.34375 C 48.51486 10.52282 47.6105 9.74766 47.5625 9.625 C 47.514515 9.50233 47.91232 9.32378 48.4375 9.21875 C 49.045611 9.09721 54.575173 9.0314125 60.09375 9.03125 z M 40.53125 9.28125 L 41.28125 10.9375 C 42.12236 12.83941 42.867078 13.42623 44.78125 13.71875 C 47.108043 14.07431 47.335656 14.27751 49.34375 17.625 C 49.942153 18.62255 50.926285 20.23263 51.53125 21.21875 C 52.950107 23.53157 52.989305 24.78188 51.6875 26.125 C 50.511051 27.33879 50.651795 28.28895 52.15625 29.21875 C 53.687068 30.16485 54.79562 31.60082 54.6875 32.5 C 54.621702 33.04725 54.243808 33.42702 53.375 33.84375 C 52.71107 34.16223 51.967727 34.52913 51.71875 34.65625 C 51.469779 34.78339 50.967213 35.32658 50.59375 35.875 C 49.767348 37.08854 49.680862 39.24677 50.34375 43.28125 C 50.589187 44.77509 50.8095 46.8034 50.8125 47.78125 C 50.817338 49.41404 50.744499 49.62344 49.84375 50.40625 C 46.397987 53.40082 46.648693 52.99327 45.96875 56.25 C 45.520333 58.39779 45.095952 59.64044 44.46875 60.53125 C 43.425605 62.01281 43.067965 63.48866 42.71875 68.15625 C 42.351168 73.06928 42.648423 76.22222 44.03125 82.34375 C 44.42494 84.08657 45.02769 87.57276 45.375 90.0625 C 45.768848 92.88577 46.412075 95.898 47.09375 98.0625 C 48.511744 102.56499 48.571818 104.24107 47.3125 105.8125 C 45.808603 107.68915 45.581715 108.26915 45.75 110.125 C 45.912929 111.92184 46.825122 113.93065 48.40625 116.03125 C 49.272755 117.18242 49.345588 117.49112 49.625 121.15625 C 49.788703 123.30348 50.051732 126.06763 50.21875 127.3125 C 50.438493 128.95052 50.424413 130.30675 50.15625 132.21875 C 49.806271 134.71412 49.829635 134.90495 50.40625 135.6875 C 50.742017 136.14323 51.51846 136.79304 52.125 137.125 C 52.972186 137.58868 53.36899 138.13118 53.875 139.40625 C 54.237288 140.31916 55.043515 142.06763 55.65625 143.3125 C 56.268992 144.55736 57.017263 146.3371 57.3125 147.25 C 58.14122 149.8125 59.053962 151.43837 60.78125 153.40625 C 63.837252 156.88796 64.95742 160.84901 63.4375 162.78125 C 63.0799 163.2359 60.609075 165.03548 57.9375 166.78125 C 55.265917 168.5271 52.051185 170.59655 50.8125 171.40625 C 49.071615 172.54415 48.325158 172.88805 47.5 172.84375 C 46.912878 172.8124 45.620895 172.743 44.625 172.6875 C 43.629105 172.6323 38.802723 172.25235 33.90625 171.84375 C 29.009778 171.43514 23.921611 171.00085 22.59375 170.90625 C 17.692366 170.55736 13.265787 169.85992 12.125 169.21875 C 10.229024 168.15315 10.21875 168.03004 10.21875 154.625 C 10.21875 137.25449 10.933478 93.36774 11.34375 85.21875 C 11.762198 76.90757 11.743738 77.71178 12.03125 55.03125 C 12.258103 37.13589 12.188583 34.91995 11.21875 19.53125 C 10.685898 11.07627 10.949008 10.48229 15.21875 9.9375 C 16.455868 9.77965 22.655015 9.57631 29 9.46875 L 40.53125 9.28125 z M 116.96875 79.34375 C 115.93514 79.322031 114.99763 79.539505 114.15625 79.96875 C 113.42199 80.34333 111.88949 80.68428 110.34375 80.84375 C 108.11743 81.07346 107.60739 81.24792 106.59375 82.0625 C 105.28207 83.11658 104.03292 83.5625 102.375 83.5625 C 100.72868 83.5625 99.758547 84.03189 99.53125 84.9375 C 99.28432 85.92137 99.955185 86.69099 101.65625 87.3125 C 104.01744 88.17518 105.08475 87.97228 107.875 86.09375 C 112.00396 83.31395 114.81438 82.68581 118.4375 83.75 C 120.40296 84.32728 121.75536 85.11426 123.46875 86.6875 C 125.10449 88.18949 125.83005 88.0606 125.21875 86.375 C 124.38786 84.08393 123.29275 81.89129 122.71875 81.375 C 122.39567 81.08438 121.30211 80.50855 120.28125 80.09375 C 119.1214 79.62245 118.00236 79.365469 116.96875 79.34375 z M 116.9375 88.5625 C 115.22129 88.53703 114.8343 88.77798 115.34375 89.59375 C 115.9472 90.56004 115.78434 90.70342 113.84375 90.90625 C 112.82109 91.01313 110.48256 91.5423 108.65625 92.0625 C 105.62336 92.92635 105.29839 92.95085 104.96875 92.5 C 104.19487 91.44168 103.47825 91.83602 99.5625 95.375 C 99.14463 95.75265 99.926962 96.48746 100.84375 96.59375 C 101.36961 96.65474 101.68 96.88708 101.75 97.28125 C 102.02947 98.85309 102.70399 98.55808 104.59375 96 C 105.54456 94.71291 105.93552 94.4375 106.65625 94.4375 C 107.47914 94.4375 107.55021 94.54713 108 96.15625 C 108.27891 97.15401 108.82028 98.17207 109.25 98.5625 C 110.1375 99.36887 110.84954 99.41457 112.25 98.75 C 113.77125 98.02813 114.1875 97.27839 114.1875 95.125 C 114.1875 94.09286 114.31007 93.1605 114.46875 93.0625 C 114.96321 92.75691 116.7483 93.68272 117.59375 94.6875 C 118.03803 95.2155 118.54833 96.20191 118.75 96.875 C 118.95167 97.54811 119.44254 98.32008 119.8125 98.5625 C 121.24786 99.50299 124.09728 98.07286 125.25 95.84375 C 125.58533 95.19534 125.67068 94.41178 125.5625 93.21875 C 125.43043 91.76222 125.50483 91.43139 126.125 90.65625 C 126.92528 89.65604 127.08571 88.6875 126.4375 88.6875 C 126.20423 88.6875 125.44533 89.16907 124.75 89.75 C 124.05467 90.33095 123.31677 90.8125 123.125 90.8125 C 122.93322 90.81324 121.79958 90.29861 120.59375 89.6875 C 118.99909 88.87931 118.01322 88.5785 116.9375 88.5625 z M 137.78125 93.5625 C 137.45311 93.62266 137.11947 94.085737 136.125 95.625 C 135.56234 96.49592 135.23281 96.6875 134.375 96.6875 C 133.4257 96.6875 133.3351 96.77681 133.25 97.65625 C 133.19869 98.18631 133.42514 99.55772 133.75 100.6875 C 134.07485 101.81723 134.42526 103.33139 134.53125 104.0625 C 134.63722 104.79357 134.7866 105.5132 134.875 105.65625 C 135.30354 106.34963 135.625 105.3221 135.625 103.15625 C 135.625 100.83102 135.63632 100.72603 136.6875 99.5625 C 138.35611 97.71554 139.24706 94.05555 138.125 93.625 C 137.99554 93.575317 137.89063 93.542447 137.78125 93.5625 z M 110.8125 94.1875 C 110.99823 94.160965 111.15625 94.29602 111.15625 94.5625 C 111.15625 94.82529 110.9503 95.03125 110.6875 95.03125 C 110.42472 95.03125 110.27805 94.8846 110.34375 94.6875 C 110.43702 94.40772 110.62677 94.214035 110.8125 94.1875 z M 118.875 99.90625 C 118.34358 99.833257 117.26283 100.29923 115.21875 101.375 C 113.64185 102.20492 112.14716 102.875 111.90625 102.875 C 111.4475 102.875 111.31295 103.25047 111.65625 103.59375 C 112.0124 103.94989 114.12877 103.79026 116.0625 103.28125 C 118.13551 102.73556 119.3125 101.76956 119.3125 100.59375 C 119.3125 100.17882 119.19385 99.950046 118.875 99.90625 z M 105.03125 126.4375 C 104.41685 126.49752 103.62273 126.78009 102.625 127.3125 C 101.68932 127.81184 99.734175 128.51143 98.28125 128.84375 C 96.828319 129.17608 94.696568 129.72874 93.5625 130.09375 L 91.5 130.78125 L 89.59375 129.75 L 87.6875 128.71875 L 86 129.25 C 84.800742 129.62819 83.799017 129.72073 82.5625 129.59375 C 80.342126 129.36572 79.380027 129.82332 79.25 131.15625 C 79.058292 133.12142 80.438168 134.63685 83.0625 135.34375 C 84.863273 135.8275 88.15293 135.8299 92.15625 135.34375 C 94.801058 135.02257 95.653848 134.79834 97.375 133.875 C 98.509165 133.26657 99.71126 132.75 100.03125 132.75 C 101.80713 132.75 105.80015 129.73035 106.21875 128.0625 C 106.51039 126.90055 106.05525 126.33747 105.03125 126.4375 z M 103.5 135.1875 C 102.88978 135.19437 101.8027 135.43982 99.875 135.90625 C 96.770036 136.65751 95.77312 137.29321 96.4375 138.09375 C 97.001455 138.77328 97.90987 138.53227 99.15625 137.40625 C 100.28927 136.38255 100.44868 136.3461 102.21875 136.4375 C 103.95429 136.5271 104.0976 136.47654 104.1875 135.84375 C 104.25076 135.39832 104.11022 135.18063 103.5 135.1875 z M 110.78125 146.96875 C 111.96872 146.91399 111.80016 147.29382 111.65625 148.34375 C 111.55003 149.11871 111.13108 150.32766 110.71875 151.03125 C 110.09183 152.10102 109.64273 152.42898 108.0625 153.03125 C 106.62515 153.57909 106.05284 154.00816 105.59375 154.78125 C 104.11703 157.26799 100.22277 159.96749 97.03125 160.71875 C 95.342152 161.11635 93.437215 161.19165 92.3125 160.90625 C 91.986092 160.82341 90.572655 160.24826 89.15625 159.625 C 87.739845 159.00173 85.965667 158.37551 85.21875 158.25 C 84.167617 158.07339 83.590593 157.74257 82.65625 156.75 C 80.874168 154.85686 80.020265 153.62331 80.1875 153.1875 C 80.26907 152.97493 81.349808 152.52849 82.59375 152.21875 C 84.835786 151.66045 84.846959 151.66099 86.75 152.28125 C 87.805858 152.62538 89.074177 152.99099 89.53125 153.09375 C 90.434137 153.29676 95.220333 152.82938 97.09375 152.34375 L 98.25 152.03125 L 98.0625 150.71875 C 97.882665 149.51957 97.933579 149.34853 98.65625 148.875 C 99.324207 148.43735 99.617701 148.39106 100.4375 148.6875 C 101.74774 149.16128 102.10056 149.14728 102.78125 148.53125 C 103.16333 148.18546 104.57597 147.84328 106.90625 147.5 C 108.87608 147.20981 110.06877 147.00161 110.78125 146.96875 z M 9.3125 153.125 C 9.3306953 153.13178 9.3540685 153.13563 9.375 153.1875 C 9.458716 153.39498 9.458716 153.76126 9.375 153.96875 C 9.2912558 154.17623 9.21875 153.97745 9.21875 153.5625 C 9.21875 153.25123 9.2579141 153.10465 9.3125 153.125 z M 109.78125 160.90625 C 110.70099 160.94587 110.95641 161.29112 110.59375 161.96875 C 110.08164 162.92564 106.084 166.2408 104.6875 166.875 C 103.1593 167.56912 100.96481 167.64125 100.71875 167 C 100.35186 166.04391 100.98364 165.14808 103.09375 163.65625 C 105.97544 161.6189 106.85755 161.18303 108.625 160.96875 C 109.07919 160.91369 109.47467 160.89304 109.78125 160.90625 z M 51.1875 190.0625 C 56.465528 190.06256 61.238778 191.66509 65.5 194.8125 C 67.485282 195.00624 69.203528 196.16478 70.65625 198.34375 C 70.753049 198.87645 70.812454 199.39082 70.8125 199.875 C 70.812454 201.03719 70.445043 202.13942 69.71875 203.15625 C 69.42817 203.49525 68.605788 204.37704 67.25 205.78125 C 65.797282 206.26552 64.31356 206.50004 62.8125 206.5 C 61.214519 206.50004 58.84901 206.04507 55.75 205.125 C 52.69935 204.20501 50.379169 203.71879 48.78125 203.71875 C 45.488495 203.71879 42.272449 205.276 39.125 208.375 C 38.398648 210.11825 37.355819 212.77769 36 216.3125 C 36.048411 216.74833 35.946774 217.30494 35.65625 218.03125 C 35.365704 218.75762 35.218739 219.28607 35.21875 219.625 C 35.218739 220.25452 35.379781 220.81422 35.71875 221.25 C 35.670316 221.58898 35.656239 221.92514 35.65625 222.3125 C 35.656239 223.7652 36.184692 225.85086 37.25 228.5625 C 38.508973 231.85525 39.243795 233.98623 39.4375 234.90625 C 40.793316 235.77787 41.878376 236.83477 42.75 238.09375 C 43.621587 239.30432 44.415814 240.05322 45.09375 240.34375 C 46.25587 240.8764 48.2962 241.12501 51.25 241.125 C 53.816367 241.12501 56.020834 240.50899 57.8125 239.25 C 57.909312 239.05632 59.053777 237.79304 61.28125 235.46875 C 62.685466 234.01609 63.273324 232.45888 63.03125 230.8125 C 63.612282 230.23145 63.979693 229.62951 64.125 229 C 62.817552 229.19371 60.67249 229.94261 57.71875 231.25 C 55.055478 232.41216 52.955744 233.00001 51.40625 233 C 49.372477 233.00001 47.19926 232.11823 44.875 230.375 C 44.778135 229.93921 44.337241 228.92763 43.5625 227.28125 C 42.981411 225.97386 42.687482 224.87163 42.6875 224 C 42.687482 222.78946 43.436382 221.74663 44.9375 220.875 C 46.244888 220.10027 47.581645 219.71878 48.9375 219.71875 C 49.809081 219.71878 50.64554 219.93922 51.46875 220.375 C 54.035116 220.18134 56.635149 219.96089 59.25 219.71875 C 61.574246 219.37982 63.820945 218.05714 66 215.78125 C 69.050577 212.68224 71.710015 211.15629 73.9375 211.15625 C 76.697534 211.15629 79.091198 211.68474 81.125 212.75 C 83.594492 214.10586 84.81244 216.04456 84.8125 218.5625 C 84.81244 220.06363 84.049463 222.16336 82.5 224.875 C 79.836704 225.06871 77.663487 225.30324 75.96875 225.59375 C 76.259234 226.56222 76.406198 227.53157 76.40625 228.5 C 76.406198 230.29165 75.699531 232.74472 74.34375 235.84375 C 72.939447 239.08807 72.17647 241.54114 72.03125 243.1875 C 70.384837 245.65705 68.460221 247.53634 66.28125 248.84375 C 64.537998 249.90904 62.350703 250.73142 59.6875 251.3125 C 57.024226 251.94199 54.350711 252.54392 51.6875 253.125 C 49.89584 253.5608 48.545005 253.78124 47.625 253.78125 C 46.704949 253.78124 45.882567 253.5608 45.15625 253.125 C 44.429892 252.73761 43.680992 252.3108 42.90625 251.875 C 42.567274 251.72973 42.038821 251.4952 41.3125 251.15625 C 39.181892 250.09095 37.2432 248.22574 35.5 245.5625 C 32.546216 240.96236 31.048416 238.64218 31 238.59375 C 29.644163 236.22105 28.615412 233.66635 27.9375 230.90625 C 27.646961 229.40517 27.118508 227.17255 26.34375 224.21875 C 26.489016 221.36184 26.63598 218.46788 26.78125 215.5625 C 27.168628 212.2698 28.050415 209.56813 29.40625 207.4375 C 29.406245 206.80805 29.640769 206.13263 30.125 205.40625 C 30.754487 204.43784 31.121898 203.7765 31.21875 203.4375 C 32.574574 199.37005 35.188684 196.0946 39.0625 193.625 C 42.742597 191.25235 46.781024 190.06256 51.1875 190.0625 z M 146.46875 191.8125 C 148.6477 191.81255 150.82092 192.69434 153 194.4375 C 155.03368 196.0355 156.53148 197.88663 157.5 199.96875 C 156.82201 203.16468 155.75103 206.11495 154.25 208.875 C 153.57202 210.13402 152.00073 215.6421 149.53125 225.375 C 147.11006 235.05952 145.87494 240.58167 145.875 241.9375 C 145.87494 242.17962 145.92027 242.56111 145.96875 243.09375 C 146.01711 243.57798 146.03119 243.95947 146.03125 244.25 C 146.03119 246.1869 145.34169 247.90515 143.9375 249.40625 C 142.58161 250.95577 140.89152 251.74999 138.90625 251.75 C 136.04927 251.74999 134.00894 250.47264 132.75 247.90625 C 131.7815 245.48512 130.76683 243.04613 129.75 240.625 C 129.31415 239.85025 128.56525 238.79334 127.5 237.4375 C 126.19255 235.74272 125.37017 234.90626 125.03125 234.90625 C 124.69225 234.90626 124.14972 235.08138 123.375 235.46875 C 122.6002 235.85614 121.87946 236.06251 121.25 236.0625 C 120.66889 236.06251 120.05288 235.92962 119.375 235.6875 C 118.89074 235.92962 118.30288 236.53156 117.625 237.5 C 116.65652 238.90426 116.14214 239.63908 116.09375 239.6875 C 115.94845 240.26858 115.27303 241.38489 114.0625 243.03125 C 113.09402 244.38708 112.69846 245.57688 112.84375 246.59375 C 111.9237 247.75589 111.32176 248.50479 111.03125 248.84375 C 110.25646 249.61851 109.44816 250.13288 108.625 250.375 C 107.89864 251.48871 106.76825 252.03124 105.21875 252.03125 C 104.10501 252.03124 103.22323 251.66383 102.59375 250.9375 L 102.8125 250.9375 L 100.9375 249.5625 C 100.59853 248.0614 99.951265 246.04922 99.03125 243.53125 C 97.965941 240.72275 97.290524 238.7559 97 237.59375 C 96.951566 237.49691 96.64356 236.08667 96.0625 233.375 C 95.723532 231.77707 94.180405 226.94442 91.46875 218.90625 C 89.144464 212.0787 87.999998 207.65879 88 205.625 C 87.999998 204.22079 88.82238 203.01692 90.46875 202 C 91.921421 201.03159 93.405143 200.5313 94.90625 200.53125 C 98.295817 200.5313 101.05689 202.3371 103.1875 205.96875 C 103.18748 206.50144 103.26096 207.30974 103.40625 208.375 C 103.59992 209.39191 103.68748 210.14081 103.6875 210.625 C 103.68748 210.96399 103.614 211.34548 103.46875 211.78125 C 104.24349 215.75193 105.34573 221.7009 106.75 229.59375 C 106.89525 229.4485 107.51126 228.6996 108.625 227.34375 C 109.30289 226.52059 110.21283 225.77169 111.375 225.09375 C 112.39185 224.5127 113.43468 223.93892 114.5 223.40625 C 115.37158 222.87363 115.90003 222.34517 116.09375 221.8125 C 116.33583 221.23145 116.40931 220.395 116.3125 219.28125 C 117.42619 218.55494 118.23449 217.08529 118.71875 214.90625 C 119.39663 212.00093 119.83753 210.34209 120.03125 209.90625 C 120.80598 208.30834 122.17089 207.50004 124.15625 207.5 C 125.99627 207.50004 127.83332 208.0879 129.625 209.25 C 131.61028 210.55745 132.5937 212.10057 132.59375 213.84375 C 132.5937 214.37643 132.52022 215.15348 132.375 216.21875 C 132.27811 217.28408 132.2187 218.09238 132.21875 218.625 C 132.2187 219.39979 132.29219 220.7647 132.4375 222.75 C 132.58272 224.49323 132.64213 225.8894 132.59375 226.90625 L 134.625 229.96875 L 135.9375 229.53125 C 136.42168 227.8849 137.25813 226.47466 138.46875 225.3125 C 138.51712 222.60086 139.19254 218.57651 140.5 213.25 C 141.80735 207.92356 142.46869 203.8398 142.46875 201.03125 C 142.46869 199.14282 142.26232 197.26353 141.875 195.375 C 142.50444 194.60029 143.2111 193.83731 143.9375 193.0625 C 144.66378 192.23937 145.50024 191.81255 146.46875 191.8125 z "
       transform="translate(0,782.35975)"
       id="path3050" />
  </g>
</svg>
